HIERARCHY
ROOT Hips
{
	OFFSET -14.64140 90.27770 -84.91600
	CHANNELS 6 Xposition Yposition Zposition Zrotation Xrotation Yrotation
	JOINT Spine
	{
		OFFSET 0.00000 13.20850 -1.60436
		CHANNELS 3 Zrotation Xrotation Yrotation
		JOINT Spine1
		{
			OFFSET 0.00000 8.61716 0.00000
			CHANNELS 3 Zrotation Xrotation Yrotation
			JOINT Spine2
			{
				OFFSET 0.00000 8.61717 0.00000
				CHANNELS 3 Zrotation Xrotation Yrotation
				JOINT Spine3
				{
					OFFSET 0.00000 8.61717 0.00000
					CHANNELS 3 Zrotation Xrotation Yrotation
					JOINT Neck
					{
						OFFSET 0.00000 11.07920 1.10792
						CHANNELS 3 Zrotation Xrotation Yrotation
						JOINT Neck1
						{
							OFFSET 0.00000 7.08032 0.00000
							CHANNELS 3 Zrotation Xrotation Yrotation
							JOINT Head
							{
								OFFSET 0.00000 7.08031 0.00000
								CHANNELS 3 Zrotation Xrotation Yrotation
								End site
								{
									OFFSET 0.00000 0.00000 0.00000
								}
							}
						}
					}
					JOINT RightShoulder
					{
						OFFSET -0.01000 7.91373 5.19711
						CHANNELS 3 Zrotation Xrotation Yrotation
						JOINT RightArm
						{
							OFFSET -18.41580 0.00000 0.00000
							CHANNELS 3 Zrotation Xrotation Yrotation
							JOINT RightForeArm
							{
								OFFSET -29.11090 0.00000 0.00000
								CHANNELS 3 Zrotation Xrotation Yrotation
								JOINT RightHand
								{
									OFFSET -24.65040 0.00000 0.00000
									CHANNELS 3 Zrotation Xrotation Yrotation
									JOINT RightHandThumb1
									{
										OFFSET -5.35114 -0.85590 3.97906
										CHANNELS 3 Zrotation Xrotation Yrotation
										JOINT RightHandThumb2
										{
											OFFSET -4.52789 0.00000 0.00000
											CHANNELS 3 Zrotation Xrotation Yrotation
											JOINT RightHandThumb3
											{
												OFFSET -2.46976 0.00000 0.00000
												CHANNELS 3 Zrotation Xrotation Yrotation
												End site
												{
													OFFSET 0.00000 0.00000 0.00000
												}
											}
										}
									}
									JOINT RightHandIndex1
									{
										OFFSET -14.26970 0.00000 2.88139
										CHANNELS 3 Zrotation Xrotation Yrotation
										JOINT RightHandIndex2
										{
											OFFSET -5.48836 0.00000 0.00000
											CHANNELS 3 Zrotation Xrotation Yrotation
											JOINT RightHandIndex3
											{
												OFFSET -3.01859 0.00000 0.00000
												CHANNELS 3 Zrotation Xrotation Yrotation
												End site
												{
													OFFSET 0.00000 0.00000 0.00000
												}
											}
										}
									}
									JOINT RightHandMiddle1
									{
										OFFSET -14.26970 0.00000 -0.09147
										CHANNELS 3 Zrotation Xrotation Yrotation
										JOINT RightHandMiddle2
										{
											OFFSET -6.17441 0.00000 0.00000
											CHANNELS 3 Zrotation Xrotation Yrotation
											JOINT RightHandMiddle3
											{
												OFFSET -3.56743 0.00000 0.00000
												CHANNELS 3 Zrotation Xrotation Yrotation
												End site
												{
													OFFSET 0.00000 0.00000 0.00000
												}
											}
										}
									}
									JOINT RightHandRing1
									{
										OFFSET -12.69180 0.00000 -3.06433
										CHANNELS 3 Zrotation Xrotation Yrotation
										JOINT RightHandRing2
										{
											OFFSET -5.62556 0.00000 0.00000
											CHANNELS 3 Zrotation Xrotation Yrotation
											JOINT RightHandRing3
											{
												OFFSET -3.56744 0.00000 0.00000
												CHANNELS 3 Zrotation Xrotation Yrotation
												End site
												{
													OFFSET 0.00000 0.00000 0.00000
												}
											}
										}
									}
									JOINT RightHandPinky1
									{
										OFFSET -11.11390 0.00000 -6.03719
										CHANNELS 3 Zrotation Xrotation Yrotation
										JOINT RightHandPinky2
										{
											OFFSET -4.52789 0.00000 0.00000
											CHANNELS 3 Zrotation Xrotation Yrotation
											JOINT RightHandPinky3
											{
												OFFSET -2.46976 0.00000 0.00000
												CHANNELS 3 Zrotation Xrotation Yrotation
												End site
												{
													OFFSET 0.00000 0.00000 0.00000
												}
											}
										}
									}
								}
							}
						}
					}
					JOINT LeftShoulder
					{
						OFFSET 0.01000 7.91373 5.19711
						CHANNELS 3 Zrotation Xrotation Yrotation
						JOINT LeftArm
						{
							OFFSET 18.41580 0.00000 0.00000
							CHANNELS 3 Zrotation Xrotation Yrotation
							JOINT LeftForeArm
							{
								OFFSET 29.11090 0.00000 0.00000
								CHANNELS 3 Zrotation Xrotation Yrotation
								JOINT LeftHand
								{
									OFFSET 24.65040 0.00000 0.00000
									CHANNELS 3 Zrotation Xrotation Yrotation
									JOINT LeftHandThumb1
									{
										OFFSET 5.35114 -0.85590 3.97906
										CHANNELS 3 Zrotation Xrotation Yrotation
										JOINT LeftHandThumb2
										{
											OFFSET 4.52789 0.00000 0.00000
											CHANNELS 3 Zrotation Xrotation Yrotation
											JOINT LeftHandThumb3
											{
												OFFSET 2.46977 0.00000 0.00000
												CHANNELS 3 Zrotation Xrotation Yrotation
												End site
												{
													OFFSET 0.00000 0.00000 0.00000
												}
											}
										}
									}
									JOINT LeftHandIndex1
									{
										OFFSET 14.26970 0.00000 2.88139
										CHANNELS 3 Zrotation Xrotation Yrotation
										JOINT LeftHandIndex2
										{
											OFFSET 5.48836 0.00000 0.00000
											CHANNELS 3 Zrotation Xrotation Yrotation
											JOINT LeftHandIndex3
											{
												OFFSET 3.01859 0.00000 0.00000
												CHANNELS 3 Zrotation Xrotation Yrotation
												End site
												{
													OFFSET 0.00000 0.00000 0.00000
												}
											}
										}
									}
									JOINT LeftHandMiddle1
									{
										OFFSET 14.26970 0.00000 -0.09147
										CHANNELS 3 Zrotation Xrotation Yrotation
										JOINT LeftHandMiddle2
										{
											OFFSET 6.17440 0.00000 0.00000
											CHANNELS 3 Zrotation Xrotation Yrotation
											JOINT LeftHandMiddle3
											{
												OFFSET 3.56744 0.00000 0.00000
												CHANNELS 3 Zrotation Xrotation Yrotation
												End site
												{
													OFFSET 0.00000 0.00000 0.00000
												}
											}
										}
									}
									JOINT LeftHandRing1
									{
										OFFSET 12.69180 0.00000 -3.06433
										CHANNELS 3 Zrotation Xrotation Yrotation
										JOINT LeftHandRing2
										{
											OFFSET 5.62556 0.00000 0.00000
											CHANNELS 3 Zrotation Xrotation Yrotation
											JOINT LeftHandRing3
											{
												OFFSET 3.56744 0.00000 0.00000
												CHANNELS 3 Zrotation Xrotation Yrotation
												End site
												{
													OFFSET 0.00000 0.00000 0.00000
												}
											}
										}
									}
									JOINT LeftHandPinky1
									{
										OFFSET 11.11390 0.00000 -6.03719
										CHANNELS 3 Zrotation Xrotation Yrotation
										JOINT LeftHandPinky2
										{
											OFFSET 4.52789 0.00000 0.00000
											CHANNELS 3 Zrotation Xrotation Yrotation
											JOINT LeftHandPinky3
											{
												OFFSET 2.46976 0.00000 0.00000
												CHANNELS 3 Zrotation Xrotation Yrotation
												End site
												{
													OFFSET 0.00000 0.00000 0.00000
												}
											}
										}
									}
								}
							}
						}
					}
					JOINT pCube4
					{
						OFFSET 0.00000 10.91090 1.10792
						CHANNELS 3 Zrotation Xrotation Yrotation
						End site
						{
							OFFSET 0.00000 0.00000 0.00000
						}
					}
				}
			}
		}
	}
	JOINT RightUpLeg
	{
		OFFSET -9.98441 0.00000 0.00000
		CHANNELS 3 Zrotation Xrotation Yrotation
		JOINT RightLeg
		{
			OFFSET 0.00000 -42.11790 0.00000
			CHANNELS 3 Zrotation Xrotation Yrotation
			JOINT RightFoot
			{
				OFFSET 0.00000 -45.00020 -0.00001
				CHANNELS 3 Zrotation Xrotation Yrotation
				JOINT RightForeFoot
				{
					OFFSET 0.00000 -3.74820 0.00000
					CHANNELS 3 Zrotation Xrotation Yrotation
					JOINT RightToeBase
					{
						OFFSET 0.00000 0.06325 14.43120
						CHANNELS 3 Zrotation Xrotation Yrotation
						End site
						{
							OFFSET 0.00000 0.00000 0.00000
						}
					}
				}
			}
		}
	}
	JOINT LeftUpLeg
	{
		OFFSET 9.98441 0.00000 0.00000
		CHANNELS 3 Zrotation Xrotation Yrotation
		JOINT LeftLeg
		{
			OFFSET 0.00000 -42.11800 0.00000
			CHANNELS 3 Zrotation Xrotation Yrotation
			JOINT LeftFoot
			{
				OFFSET 0.00000 -45.00070 0.00000
				CHANNELS 3 Zrotation Xrotation Yrotation
				JOINT LeftForeFoot
				{
					OFFSET 0.00000 -3.74824 0.00000
					CHANNELS 3 Zrotation Xrotation Yrotation
					JOINT LeftToeBase
					{
						OFFSET 0.00000 0.06325 14.43110
						CHANNELS 3 Zrotation Xrotation Yrotation
						End site
						{
							OFFSET 0.00000 0.00000 0.00000
						}
					}
				}
			}
		}
	}
}
MOTION
Frames: 4
Frame Time: 0.050000
0.04015071531715868 0.029241700788340205 -0.027456767450335 -0.033392189296756816 0.02190588320342909 -0.04188520476890369 -1.7952143347489093 1.3616582547035887 -0.8097758019195024 -0.9773651889727466 3.8226442333653052 0.42573517313029835 -1.181833298070405 -1.8478124215646874 -0.5764235434797281 -0.018690303078518024 0.3573445866068544 -0.748934693653607 -0.19375163343408974 14.120283141558355 0.040774318221141206 -0.09017148647280074 0.2676492649926797 -2.0521785222635307 -0.09825113831213644 -14.820683640075234 -0.08827419139917173 -6.2015245458598365 2.1197942648732253 -13.602804689086414 66.75046105562116 14.76770693810232 18.687970299369706 0.5937360795579064 -2.9239902268228413 93.7285959333025 8.919967189841877 -0.10469113334333927 -0.4916058689897898 4.508739934449938 -0.1273931177775684 -1.5796713904395485 0.030303896560251193 -0.04183127913665211 -56.222496143882346 -0.03095563575260494 -0.0016367080479049068 -56.23578575761115 -38.78041824670225 0.01521233847578657 0.036267591738259414 0.01501661319831816 0.00905644891184445 -0.025859744633564996 0.005698383583999876 0.01251075538998469 0.04970199584677931 -36.70385472982589 0.00881763923102676 0.018104200881961758 -0.028666258457043747 0.02859127208240984 -0.01540395450996376 0.009041401887025765 -0.03868798151582995 0.021239964334468085 -19.788105330622354 -0.012200290851490955 -0.020323397998119896 0.044190862840738046 0.04873869962712237 -0.0007576528497896704 0.039162977260525596 -0.01831578472343899 0.006989631435804687 24.10127624232619 0.03882826386515972 0.009825131586352358 28.820233445949185 -0.03274538698815741 0.03854738797672737 28.909028003063057 -0.010943133241758968 -0.003332186132830336 7.883901903714949 1.7222712385839618 12.712632834605003 -66.00518448810226 23.016523112958218 -19.758877808364918 8.155671808051045 -11.978132768273358 -90.98823284908404 -1.5572609836252256 0.8630790511187176 -1.3522908752828597 -0.5034731912895215 0.04838701468788685 -8.112067695033565 -0.018247470960289756 -0.027088399274023133 44.59197897341501 -0.029428870640539864 0.028310540304642327 44.57157340766316 12.493934487035048 -0.04852051229848945 -0.003412680615586768 -0.033522232567063506 -0.004700635052505222 -0.013557677871351847 0.022173950320835033 0.020078477959914805 0.014716525178370618 11.094089740366535 -0.04869809370236728 -0.0021332996133008346 0.0387816930214669 -0.03259800935328427 -0.004486693837172975 -0.01409376995336832 -0.016912924634066694 -0.028752220643743876 4.783628147332012 -0.029740890468266085 -0.005052617720674334 -0.035971481909946104 -0.006065893681200227 -0.027880370972064195 0.034974909944211305 0.04544494420451416 0.013726929194528488 -5.622185364536044 0.03866091923281211 -0.026129726133580656 -6.697401405116363 0.012001836599703686 0.033721078439733224 -6.69922224149635 -0.028494338441283 0.00577776201605614 -0.03580400362349344 -0.02605236472520934 0.005122329302729879 8.022650187697971 3.4934245727202877 -19.21571780932101 0.019544541996557994 10.363547192366237 0.0397408162675286 -5.580386542492797 -15.66805260345837 3.2209286885113033 -0.021973761338426434 -0.039302622800476014 -0.0438416957963189 -0.01692589850468664 4.662571507807352 0.048774458845455934 12.430387238992257 -8.213242817648124 6.873712011767036 -0.02711121703255779 46.33200410681166 0.038471459215548766 -4.343349689587311 -14.724920821015925 -3.8065235377464175 0.03793714604324351 -0.0004269985880755238 0.013795245033766883 -0.02691569314553104 -10.740859798193227 -0.03265357892297468 
0.0481580175983143 0.006809018522275279 0.0346692797181333 0.03555802865323672 -0.03275394135347746 -0.01034682706327178 -1.9485129483396595 1.4117288058085191 -0.8167109960281855 -1.0261391094755936 3.8127071019482695 0.33525782816364447 -1.116432720681559 -1.8656681509335238 -0.6830401229712084 -0.05098829834776803 0.33131631663204536 -0.7852782767171125 -0.32025396408832385 14.222224947863625 0.08576732395510729 -0.08356737218446726 0.3686212252821889 -1.7965777373559146 -0.11994415702501895 -14.665859666836418 -0.14069878763418595 -6.451561631244568 2.2251202048564545 -13.550920424188938 66.02227463809331 12.415694377117065 19.922611847720805 1.7174000607241164 -2.491381211384159 92.98116177512972 9.049444004225288 -0.07867887932893829 -0.42644482677188883 4.484326747606049 -0.1122333087189365 -1.5872618011915307 0.031417587300281116 -0.030041577970663758 -56.21796213924389 0.03830167968409079 0.029427618508891765 -56.18659973895725 -38.76140509938159 0.018286466984704167 0.0012502561661797153 -0.010900275147654563 -0.015896377923517214 -0.006638150835946118 -0.004045665664685028 -0.015528432132680956 -0.013471647309274427 -36.74204545684075 0.013425674060484581 0.03706388628629947 -0.03829925008218275 -0.022518950124603754 -0.007365977099226946 -0.016872452257896697 -0.005584540864282829 -0.016250557463397666 -19.739557013116553 -0.021120282826183247 -0.011339082703519543 0.009150038532364962 0.026909740151840146 0.003144416537560943 0.02196121831665698 -0.028963744921502593 -0.030188743395145157 24.04931444502519 0.03177461783816596 0.025172362942724288 28.834115248152802 0.04411907214268102 0.03358243065319927 28.859415668938038 -0.04930002693662767 0.02817387884759259 8.37279712684164 1.8134110455839059 12.645422265733393 -65.27319682877885 21.102659616072096 -22.071879432314628 5.687875906002667 -10.265790006291196 -90.29368147630773 -1.9355281733240999 1.1628720301035842 -1.4260837157120394 -0.495264962287853 0.11317274574686412 -8.115698971311897 -0.04529193289335214 -0.006589970975123898 44.56586761904876 -0.04221017230362448 -0.024437370080193425 44.575378408846234 12.475340160935893 -0.04043374632636215 -0.031021798646295357 0.04086161783760023 -0.030240000990791542 0.014741084479366697 0.02923515288808372 0.043465362358787944 0.04770281809855729 11.116083404699715 0.04501081115263852 0.01565031867795342 -0.015991444453506507 -0.004728891992401017 0.0064101975697049025 0.0035072384409450645 -0.022997722837053397 0.006619847010737002 4.75183642254691 -0.0362210229588566 0.03659826909038274 -0.041301213815399626 -0.01932152897631564 0.017395856138493444 0.030656310845447954 -0.0024330015402971345 0.04756681659998354 -5.586586305131998 0.033890065832722534 0.006869041539493563 -6.70425047380246 -0.03583647436221992 0.0010447534205606857 -6.700945588702273 0.03975907766353009 0.04106062221833218 -0.011172963736241019 -0.016815149902633598 0.024768312776163884 7.999037234325047 3.454218330394311 -19.21240721338719 -0.008492430923629602 10.37527009480496 -0.028717127949104287 -5.646731297214047 -15.705054401354792 3.180337318957731 -0.03132003255106888 0.04109270265201561 0.03278059655171696 0.018198120230554123 4.7347154921360035 -0.02383698519033598 12.482859611467225 -8.262322700896249 6.928541457189617 0.043205410620320114 46.41290633962651 -0.043388047420075425 -4.352043505438162 -14.725522553907739 -3.8769796926800457 -0.020272598048635324 -0.029513207709306873 0.03791712926153777 -0.020153194244525593 -10.780336299977536 -0.036984030473997453 
-0.03783865756000214 0.0002705141006310729 -0.04983951590382111 -0.03585492971911311 -0.02114406640261411 0.046018086169592826 -2.019762739358797 1.4112219426190609 -0.8796352326957931 -0.9756719499026303 3.7912341968342225 0.3977532686183271 -1.130512880497263 -1.9245400637162107 -0.8419467037281207 -0.04623590601585758 0.3589924810083333 -0.7684349931873503 -0.3457490458234031 14.475031248108676 0.14436726348182882 -0.12898938401793414 0.49507112765371947 -1.5282402207307302 -0.15682161404311776 -14.507581922973676 -0.08252601510061941 -6.80313099798891 2.3386051012913738 -13.442533712601554 65.17825671922931 10.001740673209667 21.256254688122517 2.174949203283678 -2.2482031109073715 92.70962301253974 9.23088231959181 -0.17696043016984103 -0.43165149951407006 4.501189407566807 -0.13819334797418287 -1.6385325546275997 -0.003693839413355287 -0.03498642254838746 -56.23616157176459 0.020961025205903212 0.04100840963879654 -56.2510509026139 -38.75431241623909 0.013623795371857421 -0.0487220415386593 0.000468997660804448 0.007253758281317759 -0.0072370720743683715 -0.04977984245050992 -0.02589817666347941 0.0283324927729999 -36.73207403929492 0.028776187560058054 0.004693996513871046 0.03429922761701189 -0.006026516173226135 -0.031068571892735746 0.02289663676987119 0.001531242302040665 -0.02084133635923778 -19.733308884912166 0.02674767347880171 -0.022665406694408717 0.03261792413060439 -0.023110064369298827 -0.017280813089012817 0.04762663684314775 0.0434347653159427 -0.044009154132101394 24.064356095462408 0.018304524601295117 -0.005613498965837501 28.9009747382902 -0.006541878372409885 0.011364018583604234 28.88749750405556 0.00399057957546992 -0.030500231275255023 8.834980861985535 1.8987831307548475 12.55922182757797 -64.28963351677639 19.49605903506127 -24.68766772126113 3.7444101295491166 -8.843260559325092 -89.89709749633407 -2.4467117946272605 1.4303651899061811 -1.4627222244135714 -0.4400628801036292 0.03338508741050014 -8.136780952918752 0.008880973978476921 0.025205782365390214 44.55028668183583 0.019267966339764065 0.013441732101242977 44.52993459099098 12.42279849308556 0.005399775565547562 -0.013763588454185056 -0.025519574017318327 0.0006803288083501635 -0.025234452857246594 -0.01168825765947119 0.013913869466490637 0.009619411091794563 11.120814684108963 -0.03956797579574835 -0.01888836446677292 0.011261726239018737 -0.038057618545277845 0.03097275987577077 -0.02708262344633468 0.040465542696252146 -0.04163111480772419 4.735518641445845 0.014235420992378496 -0.025448353830957567 -0.01455969242482615 -0.041363575176500196 -0.019891953885425324 0.049409980883262844 -0.021086647478800725 -0.01576405289555116 -5.6048282454546445 0.01465356744364831 0.04268423366561332 -6.739956369289516 -0.02979290446595034 0.011143861742152782 -6.689155945745879 -0.0008709997595187715 0.0018343911864702627 -0.004717018814696389 0.03168405499719164 0.032119831297916915 8.027360311068055 3.5079218126167087 -19.19696317275121 0.027974356001839205 10.361115784163262 -0.011939736762185783 -5.617801818172385 -15.648715796687853 3.155468070533912 -0.014267531509222676 -0.025363553327223645 -0.006907683305486687 0.004453837537505752 4.725910846391126 0.0052629169188355435 12.476653902911563 -8.233881656334217 6.8676473191506755 -0.029433956875902376 46.3693238234408 0.03451285482954992 -4.3300920214020096 -14.773441391532144 -3.8267504102700403 0.010710396993862165 -0.019832737626023878 -0.03540253585272338 -0.046349389294987796 -10.696872916894629 -0.004531739335610008 
0.02747090055291739 -0.02439274463981284 -0.037387607917793254 -0.01766801160517755 -0.009067381678338001 -0.03896667790615453 -2.0812571878713477 1.5196533833410233 -0.855628717613102 -0.9912494969278062 3.805685601747442 0.36942062897156325 -1.1958913585995319 -1.9027852968332548 -0.9315636425361828 -0.17073602681463163 0.31803635571901423 -0.8218422291685208 -0.4283938310345061 14.702131835766705 0.17195967286408648 -0.11859612119725366 0.5518066979619942 -1.318777357183818 -0.21659682971916838 -14.35517257214586 -0.05795240565555762 -7.14469643077096 2.3844873381754645 -13.41698197792195 64.40581336990986 7.6720191924992704 22.828025101471926 1.7094972824840087 -2.1730654894090966 92.94423292035624 8.911015865299248 -0.091299457163841 -0.22096206627379097 4.50873725109908 -0.16599009839400294 -1.549984861355902 0.03227246677168309 -0.028762503997131518 -56.19694320414934 0.038451752274434335 0.03547329285723244 -56.216413443118746 -38.75103443823554 -0.02282898080316292 -0.029465503770268964 -0.030626408449763845 0.021193991119537507 -0.0032474623704565526 -0.042776296100044284 0.03290882175121033 -0.027997811521337103 -36.70616971708027 0.0020007020012852423 -0.038222685801200855 0.03310561435706061 -0.029689340990016397 -0.04437576280093697 -0.014815233402805163 0.01896056579288966 0.01286292381084596 -19.724963961429204 0.016528529599204485 -0.04309597322773245 0.04066362653344674 -0.02304408159525509 0.047802402823671 0.0033991336580493203 0.02357251555951701 0.01276238459420496 24.07015226852529 0.018673559811393306 0.03569307216523037 28.84781135899053 -0.022772074854198427 0.02296701926025008 28.871731909324087 0.02327987140604036 -0.03262572422577607 9.428760007677415 2.0592620491657163 12.534802884271508 -63.24478358803741 18.05267395225439 -27.71621021277772 2.4157509705395723 -7.531637298475476 -90.45159587033486 -2.4708461502946233 1.5815657690962637 -1.529441245221536 -0.4428165575007392 0.09262651453698315 -8.116533642275744 -0.014278899964018708 -0.004825394386572762 44.6110115594287 0.047774045902008365 0.010543629739095423 44.547920393804766 12.444744356696724 -0.0025358054075373124 -0.022838720520176856 -0.04669166664829725 -0.0007164821111594571 0.04098110404383324 0.005050705196267332 0.00403807420962757 -0.03117585860192442 11.1353352039942 0.024215847968463915 -0.043707526252433695 -0.046128017205292894 -0.019931241566774047 -0.04681622651940261 -0.028907727817851583 0.01645874365692797 0.004342309850665677 4.7598865574726785 -0.009353257725423 -0.0219040237932117 0.04815790874472313 -0.018608543756658165 -0.00441650976582079 0.018989134077989085 0.03958723155626853 0.021231275790529965 -5.624926255502462 -0.022078971879140374 -0.017836967674490545 -6.684026560109481 -0.02246197441349083 -0.029003970744326334 -6.7363415891839225 0.043826456495692896 -0.014960440870874739 -0.015444397251492228 -0.008223044510708504 -0.0024666921771262524 8.08298161197403 3.482668373754128 -19.24908109447885 -0.002889218217330117 10.419570499064193 0.0013286611057809986 -5.620118464023052 -15.69137208222525 3.231328987527365 0.01757231080380292 -0.010650425371385797 0.0033646620882869537 -0.019652026975171225 4.668619279002851 0.024724995057843077 12.484657589799356 -8.210513990266772 6.861869376466903 0.017467075358175554 46.3738055157029 0.023084622582905445 -4.324205373275928 -14.788677325432118 -3.8332719223179175 0.03678218124199457 0.01800130957294859 0.03804124482239832 -0.04878874427826061 -10.700716444028897 0.012303938352967907 
